HIERARCHY
ROOT wrist
{
	OFFSET 0.00 0.00 0.00
	CHANNELS 6 Xposition Yposition Zposition Xrotation Yrotation Zrotation
	JOINT riHand
	{
		OFFSET -0.04598 0.37556 -0.10882
		CHANNELS 3 Xrotation Yrotation Zrotation
		JOINT RiIndexMP
		{
			OFFSET -1.68547 2.46874 -0.24056
			CHANNELS 3 Zrotation Xrotation Yrotation
			JOINT RiIndexPIP
			{
				OFFSET -0.10277 1.47086 -0.45732
				CHANNELS 3 Xrotation Yrotation Zrotation
				JOINT RiIndexDIP
				{
					OFFSET -0.08662 0.93830 -0.07738
					CHANNELS 3 Xrotation Yrotation Zrotation
					End Site
					{
						OFFSET -0.07343 0.79543 -0.06560
					}
				}
			}
		}
		JOINT RiMiddleMP
		{
			OFFSET -0.85407 2.65552 -0.00744
			CHANNELS 3 Zrotation Xrotation Yrotation
			JOINT RiMiddlePIP
			{
				OFFSET -0.20884 1.70284 -0.28882
				CHANNELS 3 Xrotation Yrotation Zrotation
				JOINT RiMiddleDIP
				{
					OFFSET -0.13336 1.10092 -0.23410
					CHANNELS 3 Xrotation Yrotation Zrotation
					End Site
					{
						OFFSET -0.11503 0.94711 -0.19274
					}
				}
			}
		}
		JOINT RiRingMP
		{
			OFFSET 0.20418 2.54564 0.23484
			CHANNELS 3 Zrotation Xrotation Yrotation
			JOINT RiRingPIP
			{
				OFFSET -0.04892 1.76626 -0.37155
				CHANNELS 3 Xrotation Yrotation Zrotation
				JOINT RiRingDIP
				{
					OFFSET -0.02641 0.95308 -0.21249
					CHANNELS 3 Xrotation Yrotation Zrotation
					End Site
					{
						OFFSET -0.02537 0.91606 -0.19270
					}
				}
			}
		}
		JOINT RiPinkyMP
		{
			OFFSET 0.88895 2.32064 0.25776
			CHANNELS 3 Zrotation Xrotation Yrotation
			JOINT RiPinkyPIP
			{
				OFFSET 0.43367 1.29723 -0.28031
				CHANNELS 3 Xrotation Yrotation Zrotation
				JOINT RiPinkyDIP
				{
					OFFSET 0.24248 0.73091 -0.16650
					CHANNELS 3 Xrotation Yrotation Zrotation
					End Site
					{
						OFFSET 0.26427 0.78713 -0.16490
					}
				}
			}
		}
		JOINT RiThumbCMC
		{
			OFFSET -1.27353 -0.34685 -0.51300
			CHANNELS 3 Xrotation Yrotation Zrotation
			JOINT RiThumbMP
			{
				OFFSET -0.97380 1.27673 -0.24634
				CHANNELS 3 Xrotation Yrotation Zrotation
				JOINT RiThumbIP
				{
					OFFSET -0.70681 0.85176 -0.10722
					CHANNELS 3 Xrotation Yrotation Zrotation
					End Site
					{
						OFFSET -0.60213 0.74049 -0.11612
					}
				}
			}
		}
	}
}
MOTION
Frames: 20
Frame Time: 0.008333
 0.8232 55.3824 3.7635 51.2054 -57.7579 7.8857 -0.7574 36.8145 -19.0604 -36.2647 -48.1020 -36.7368 -18.6395 -1.5412 -2.0973 -12.3233 -1.0971 -1.3324 -37.2217 -53.0346 -39.9954 -38.2148 -4.1145 -2.8160 13.4078 1.7638 0.2658 -29.4800 -77.9725 -31.5424 -17.2836 -0.4702 -0.0481 2.5437 0.0696 -0.0050 83.5654 -76.1136 89.4786 -11.9912 4.2259 3.0414 -11.5321 4.0780 2.9102 174.9285 -79.2388 177.0167 -3.7657 -3.3696 -3.7669 6.4069 6.8475 6.4092
 0.4513 55.5738 4.0142 53.9592 -56.8267 10.1894 -2.1098 37.2916 -17.8971 -36.5541 -48.5436 -37.0998 -17.7218 -1.4820 -1.9833 -13.0095 -1.1494 -1.4131 -37.0041 -53.2185 -39.8052 -38.4852 -4.1358 -2.8449 12.7081 1.6706 0.2622 -27.5792 -77.8226 -29.5908 -17.6691 -0.4804 -0.0508 2.5849 0.0708 -0.0051 83.7159 -76.0474 89.6331 -11.3136 4.0072 2.8482 -10.9763 3.8974 2.7529 172.9941 -78.9895 175.3455 -3.9217 -3.4995 -3.9228 6.7840 7.2983 6.7865
 0.1223 55.7402 4.2262 55.2831 -56.6918 11.7823 -2.4618 37.6104 -17.6887 -35.4159 -48.2548 -35.8285 -20.0228 -1.6270 -2.2710 -12.5517 -1.1146 -1.3592 -36.5032 -53.5685 -39.3522 -38.9871 -4.1748 -2.8987 12.3957 1.6290 0.2602 -27.0127 -77.7726 -29.0093 -17.2935 -0.4704 -0.0482 3.0058 0.0823 -0.0062 81.9826 -76.1045 87.9411 -11.3010 4.0031 2.8446 -11.1315 3.9480 2.7966 168.7847 -78.7255 171.0624 -3.5853 -3.2183 -3.5864 6.6038 7.0822 6.6062
 -0.1519 55.8871 4.4228 56.5989 -56.8676 13.4795 -2.8935 38.2398 -18.0026 -36.2422 -49.1649 -36.8211 -18.4518 -1.5292 -2.0739 -13.6583 -1.1980 -1.4900 -37.3800 -54.4023 -40.4386 -37.6697 -4.0714 -2.7581 11.5232 1.5128 0.2535 -27.7960 -77.6527 -29.8152 -15.8719 -0.4325 -0.0389 1.8486 0.0506 -0.0033 80.0492 -76.3136 86.0325 -11.7012 4.1326 2.9584 -10.3893 3.7047 2.5884 172.5313 -80.4404 175.2313 -4.4200 -3.9099 -4.4213 7.3864 8.0301 7.3891
 -0.3637 56.0136 4.5838 57.9721 -57.0961 14.6818 -4.0898 38.6556 -17.4949 -36.6297 -49.5225 -37.2780 -18.1747 -1.5114 -2.0395 -13.3804 -1.1773 -1.4570 -38.1005 -54.8578 -41.2851 -36.7650 -3.9985 -2.6629 10.8646 1.4252 0.2473 -27.8959 -77.2455 -29.9208 -15.0114 -0.4095 -0.0337 1.6119 0.0442 -0.0028 78.1591 -76.3682 84.1833 -11.4527 4.0523 2.8876 -10.1923 3.6397 2.5336 173.9984 -80.7678 176.9755 -4.4726 -3.9528 -4.4740 7.4585 8.1186 7.4613
 -0.5053 56.1231 4.6928 58.4314 -57.3017 14.8698 -4.8319 38.6215 -16.9257 -36.2382 -49.6830 -36.8655 -18.8847 -1.5567 -2.1280 -12.7870 -1.1325 -1.3869 -38.1550 -55.2713 -41.4198 -36.5222 -3.9787 -2.6375 10.7755 1.4134 0.2463 -27.3661 -76.9611 -29.3773 -13.7264 -0.3749 -0.0267 0.5530 0.0152 -0.0008 74.4328 -76.2515 80.5591 -11.6515 4.1166 2.9443 -10.6614 3.7943 2.6644 175.2030 -81.8385 178.4782 -5.0864 -4.4472 -5.0879 7.7828 8.5196 7.7857
 -0.5853 56.2163 4.7546 58.2677 -57.6278 14.8058 -4.7795 38.8895 -17.1638 -36.5103 -49.8607 -37.1783 -18.3062 -1.5199 -2.0558 -13.8692 -1.2136 -1.5151 -38.2968 -55.4957 -41.6106 -36.2611 -3.9572 -2.6104 11.0753 1.4532 0.2494 -26.9086 -76.4556 -28.9072 -13.8843 -0.3792 -0.0275 2.2270 0.0610 -0.0042 72.5941 -76.2418 78.7616 -11.3390 4.0155 2.8554 -9.9503 3.5594 2.4666 170.1977 -80.5074 173.7502 -4.7428 -4.1718 -4.7442 7.5814 8.2701 7.5842
 -0.5932 56.2948 4.7626 57.0878 -58.1139 13.4887 -4.3805 38.9123 -16.7055 -36.6199 -50.1436 -37.3227 -18.1540 -1.5101 -2.0369 -13.5731 -1.1916 -1.4799 -38.1397 -55.5426 -41.4532 -36.4668 -3.9741 -2.6318 10.9525 1.4369 0.2482 -26.5510 -76.4608 -28.5394 -13.4010 -0.3662 -0.0250 1.5883 0.0435 -0.0027 71.9043 -76.0197 78.1140 -10.9069 3.8747 2.7333 -9.8249 3.5177 2.4320 174.4344 -82.2003 177.9408 -5.4886 -4.7650 -5.4902 7.9232 8.6945 7.9262
 -0.5584 56.3550 4.7352 55.8726 -58.6958 12.5831 -4.0711 39.1101 -17.0679 -36.5345 -49.9566 -37.2132 -18.3115 -1.5202 -2.0565 -14.4791 -1.2581 -1.5880 -37.9027 -55.4484 -41.1862 -36.7112 -3.9941 -2.6573 10.9544 1.4372 0.2482 -26.7543 -76.5834 -28.7486 -12.9669 -0.3544 -0.0228 1.6111 0.0441 -0.0028 70.3872 -76.0090 76.6290 -10.0809 3.6028 2.5027 -10.9627 3.8929 2.7490 178.6686 -82.0301 -178.0240 -4.7705 -4.1941 -4.7719 7.7873 8.5251 7.7902
 -0.4836 56.3983 4.6678 54.7676 -59.0623 11.3008 -4.7615 39.1332 -16.8198 -36.4473 -49.8940 -37.1125 -18.4255 -1.5275 -2.0707 -14.6216 -1.2685 -1.6051 -38.3378 -55.6862 -41.6882 -35.9365 -3.9304 -2.5767 11.1660 1.4653 0.2502 -27.1171 -76.2648 -29.1213 -13.3002 -0.3634 -0.0245 2.0114 0.0551 -0.0037 67.7222 -75.9557 74.0215 -10.9528 3.8897 2.7462 -10.0684 3.5986 2.4993 166.3942 -80.3975 170.3847 -5.4542 -4.7381 -5.4558 7.6133 8.3095 7.6162
 -0.3676 56.4193 4.5557 52.3561 -59.5816 9.3540 -4.6188 39.1733 -17.2229 -36.3756 -50.0443 -37.0475 -18.5355 -1.5346 -2.0844 -14.1872 -1.2369 -1.5531 -38.4130 -55.8151 -41.7907 -35.3510 -3.8815 -2.5164 10.4781 1.3738 0.2431 -27.3977 -76.0687 -29.4095 -13.2124 -0.3611 -0.0241 2.1450 0.0587 -0.0040 65.8252 -75.8375 72.1729 -11.4985 4.0671 2.9007 -9.6230 3.4504 2.3765 167.0891 -80.6893 170.9092 -5.3351 -4.6443 -5.3366 7.5041 8.1747 7.5068
 -0.2066 56.4232 4.4129 49.4527 -60.0423 6.7687 -4.9805 39.2775 -16.8537 -36.1326 -49.7136 -36.7532 -19.0674 -1.5682 -2.1508 -14.5906 -1.2662 -1.6014 -38.2297 -55.5801 -41.5550 -35.9687 -3.9331 -2.5800 10.7547 1.4106 0.2461 -28.3918 -76.0330 -30.4329 -12.6624 -0.3462 -0.0214 2.2485 0.0616 -0.0042 65.5950 -75.8561 71.9445 -11.1895 3.9668 2.8130 -9.8247 3.5176 2.4319 168.6292 -81.4379 172.4375 -5.5678 -4.8271 -5.5695 7.4136 8.0634 7.4163
 -0.0198 56.4121 4.2210 45.6072 -60.2320 3.4127 -4.6245 39.3354 -17.1317 -36.0969 -49.8179 -36.7238 -19.2813 -1.5815 -2.1777 -14.5489 -1.2632 -1.5964 -39.2017 -56.2538 -42.7019 -33.8879 -3.7567 -2.3679 9.7355 1.2752 0.2342 -28.7686 -75.5300 -30.8187 -13.3999 -0.3661 -0.0250 2.7919 0.0764 -0.0056 63.9711 -75.8185 70.3527 -11.7031 4.1332 2.9590 -9.3753 3.3675 2.3087 169.2322 -81.5802 173.2208 -5.6675 -4.9049 -5.6691 7.5420 8.2215 7.5448
 0.1818 56.3880 3.9903 42.0971 -60.0428 0.1004 -5.0194 39.1216 -17.0262 -35.5865 -49.4070 -36.1304 -20.5003 -1.6556 -2.3314 -14.4535 -1.2563 -1.5849 -38.9361 -56.1881 -42.4092 -34.0983 -3.7749 -2.3891 10.2042 1.3375 0.2400 -29.7463 -75.6137 -31.8270 -12.3346 -0.3373 -0.0199 2.1045 0.0576 -0.0039 63.2138 -75.7058 69.6212 -11.2593 3.9895 2.8328 -9.9544 3.5608 2.4677 167.2002 -80.9958 171.2716 -5.4788 -4.7574 -5.4804 7.1829 7.7812 7.1855
 0.4075 56.3498 3.7312 38.3797 -59.5363 -3.2058 -5.2450 38.8491 -17.0428 -35.9619 -49.7589 -36.5714 -19.0331 -1.5660 -2.1466 -15.4369 -1.3266 -1.7035 -38.4887 -55.9424 -41.8932 -35.3287 -3.8797 -2.5141 11.9241 1.5662 0.2568 -29.8874 -75.4906 -31.9719 -12.3936 -0.3389 -0.0201 2.2066 0.0604 -0.0041 62.3836 -75.6168 68.8148 -11.3699 4.0254 2.8641 -10.1541 3.6270 2.5230 169.9211 -82.0099 173.7424 -5.4735 -4.7533 -5.4751 7.2821 7.9023 7.2847
 0.6495 56.2961 3.4456 33.9386 -58.9554 -6.6677 -4.6958 38.8828 -17.6583 -35.3271 -49.4056 -35.8488 -20.2369 -1.6399 -2.2981 -14.9484 -1.2919 -1.6444 -38.4577 -56.0625 -41.8815 -34.8912 -3.8427 -2.4694 11.9424 1.5686 0.2570 -30.0722 -75.6620 -32.1632 -13.1295 -0.3588 -0.0236 4.1695 0.1140 -0.0097 62.3602 -75.4898 68.8065 -11.7388 4.1447 2.9692 -9.6060 3.4447 2.3718 166.5279 -81.8912 170.4973 -5.9494 -5.1235 -5.9511 7.2676 7.8846 7.2703
 0.8949 56.2371 3.1265 30.8438 -57.8459 -9.6949 -5.2310 38.5733 -17.5045 -35.5523 -49.5735 -36.1090 -19.4071 -1.5893 -2.1935 -15.7690 -1.3499 -1.7437 -38.5744 -56.0906 -42.0098 -34.5987 -3.8179 -2.4397 11.4895 1.5083 0.2532 -30.7046 -75.4957 -32.8149 -13.5213 -0.3694 -0.0256 3.5689 0.0976 -0.0078 61.6660 -75.4635 68.1261 -11.8705 4.1871 3.0068 -9.5661 3.4314 2.3609 164.8254 -81.6318 169.0080 -6.1785 -5.2994 -6.1803 7.1429 7.7325 7.1455
 1.1539 56.1634 2.7807 26.5850 -56.5818 -13.1517 -4.4564 38.4713 -17.9642 -35.3403 -49.4560 -35.8679 -20.7648 -1.6713 -2.3650 -14.3495 -1.2487 -1.5725 -39.0152 -56.4378 -42.5358 -33.2961 -3.7052 -2.3088 10.0682 1.3194 0.2384 -31.8363 -75.8365 -33.9834 -13.1008 -0.3581 -0.0235 3.0245 0.0828 -0.0062 63.0446 -75.5456 69.4735 -12.2568 4.3109 3.1179 -8.3136 3.0084 2.0217 172.2190 -83.4147 176.1115 -6.1014 -5.2404 -6.1031 7.0274 7.5922 7.0300
 1.3953 56.0756 2.4267 23.9646 -55.0439 -15.5224 -5.4688 38.2894 -17.7319 -35.0979 -48.9447 -35.5551 -20.5923 -1.6611 -2.3431 -15.4017 -1.3241 -1.6992 -38.7703 -56.2069 -42.2370 -33.7251 -3.7426 -2.3516 11.5500 1.5164 0.2537 -31.2218 -75.3255 -33.3477 -13.7079 -0.3744 -0.0266 3.2144 0.0880 -0.0068 60.2291 -75.3874 66.7197 -11.5494 4.0836 2.9152 -10.1498 3.6256 2.5218 154.8729 -77.1013 159.4038 -5.9639 -5.1347 -5.9656 7.3004 7.9248 7.3031
 1.6355 55.9800 2.0536 20.5410 -53.3603 -18.2242 -5.5437 38.1273 -17.8410 -35.2849 -49.1189 -35.7752 -20.0156 -1.6265 -2.2701 -15.2706 -1.3149 -1.6833 -38.9239 -56.2976 -42.4152 -33.3076 -3.7062 -2.3099 11.6802 1.5337 0.2549 -31.3681 -75.1868 -33.4979 -13.3995 -0.3661 -0.0250 2.7442 0.0751 -0.0055 59.2789 -75.3362 65.7893 -11.0232 3.9127 2.7661 -11.3600 4.0222 2.8613 156.7257 -79.7129 160.9407 -6.0941 -5.2348 -6.0959 6.6687 7.1599 6.6711
